<svg width="186" height="51" viewBox="0 0 186 51" fill="none" xmlns="http://www.w3.org/2000/svg">
<line x1="1.98767" y1="48.5" x2="185.012" y2="48.5" stroke="white" stroke-width="4"/>
<path d="M14.1152 38L7.92773 17.8379H7.76953C7.79297 18.3184 7.82812 19.0449 7.875 20.0176C7.93359 20.9785 7.98633 22.0039 8.0332 23.0938C8.08008 24.1836 8.10352 25.168 8.10352 26.0469V38H3.23438V12.3008H10.6523L16.7344 31.9531H16.8398L23.291 12.3008H30.709V38H25.6289V25.8359C25.6289 25.0273 25.6406 24.0957 25.6641 23.041C25.6992 21.9863 25.7402 20.9844 25.7871 20.0352C25.834 19.0742 25.8691 18.3535 25.8926 17.873H25.7344L19.1074 38H14.1152ZM47.7422 17.9785C48.0117 17.9785 48.3223 17.9961 48.6738 18.0312C49.0371 18.0547 49.3301 18.0898 49.5527 18.1367L49.1484 23.1641C48.9727 23.1055 48.7207 23.0645 48.3926 23.041C48.0762 23.0059 47.8008 22.9883 47.5664 22.9883C46.875 22.9883 46.2012 23.0762 45.5449 23.252C44.9004 23.4277 44.3203 23.7148 43.8047 24.1133C43.2891 24.5 42.8789 25.0156 42.5742 25.6602C42.2812 26.293 42.1348 27.0723 42.1348 27.998V38H36.7734V18.3477H40.834L41.625 21.6523H41.8887C42.2754 20.9844 42.7559 20.375 43.3301 19.8242C43.916 19.2617 44.5781 18.8164 45.3164 18.4883C46.0664 18.1484 46.875 17.9785 47.7422 17.9785ZM66.832 32.1641C66.832 33.5 66.5156 34.6309 65.8828 35.5566C65.2617 36.4707 64.3301 37.168 63.0879 37.6484C61.8457 38.1172 60.2988 38.3516 58.4473 38.3516C57.0762 38.3516 55.8984 38.2637 54.9141 38.0879C53.9414 37.9121 52.957 37.6191 51.9609 37.209V32.7793C53.0273 33.2598 54.1699 33.6582 55.3887 33.9746C56.6191 34.2793 57.6973 34.4316 58.623 34.4316C59.666 34.4316 60.4102 34.2793 60.8555 33.9746C61.3125 33.6582 61.541 33.248 61.541 32.7441C61.541 32.416 61.4473 32.123 61.2598 31.8652C61.084 31.5957 60.6973 31.2969 60.0996 30.9688C59.502 30.6289 58.5645 30.1895 57.2871 29.6504C56.0566 29.1348 55.043 28.6133 54.2461 28.0859C53.4609 27.5586 52.875 26.9375 52.4883 26.2227C52.1133 25.4961 51.9258 24.5762 51.9258 23.4629C51.9258 21.6465 52.6289 20.2812 54.0352 19.3672C55.4531 18.4414 57.3457 17.9785 59.7129 17.9785C60.9316 17.9785 62.0918 18.1016 63.1934 18.3477C64.3066 18.5938 65.4492 18.9863 66.6211 19.5254L65.0039 23.3926C64.0312 22.9707 63.1113 22.625 62.2441 22.3555C61.3887 22.0859 60.5156 21.9512 59.625 21.9512C58.8398 21.9512 58.248 22.0566 57.8496 22.2676C57.4512 22.4785 57.252 22.8008 57.252 23.2344C57.252 23.5508 57.3516 23.832 57.5508 24.0781C57.7617 24.3242 58.1602 24.5996 58.7461 24.9043C59.3438 25.1973 60.2168 25.5781 61.3652 26.0469C62.4785 26.5039 63.4453 26.9844 64.2656 27.4883C65.0859 27.9805 65.7188 28.5957 66.1641 29.334C66.6094 30.0605 66.832 31.0039 66.832 32.1641ZM70.2598 35.4863C70.2598 34.3848 70.5586 33.6113 71.1562 33.166C71.7656 32.7207 72.498 32.498 73.3535 32.498C74.1855 32.498 74.9004 32.7207 75.498 33.166C76.1074 33.6113 76.4121 34.3848 76.4121 35.4863C76.4121 36.541 76.1074 37.3027 75.498 37.7715C74.9004 38.2402 74.1855 38.4746 73.3535 38.4746C72.498 38.4746 71.7656 38.2402 71.1562 37.7715C70.5586 37.3027 70.2598 36.541 70.2598 35.4863ZM98.543 12.3008C100.875 12.3008 102.797 12.582 104.309 13.1445C105.832 13.707 106.963 14.5566 107.701 15.6934C108.439 16.8301 108.809 18.2656 108.809 20C108.809 21.1719 108.586 22.1973 108.141 23.0762C107.695 23.9551 107.109 24.6992 106.383 25.3086C105.656 25.918 104.871 26.416 104.027 26.8027L111.586 38H105.539L99.4043 28.1387H96.5039V38H91.0547V12.3008H98.543ZM98.1562 16.7656H96.5039V23.709H98.2617C100.066 23.709 101.355 23.4102 102.129 22.8125C102.914 22.2031 103.307 21.3125 103.307 20.1406C103.307 18.9219 102.885 18.0547 102.041 17.5391C101.209 17.0234 99.9141 16.7656 98.1562 16.7656ZM138.146 25.1152C138.146 27.0957 137.9 28.9004 137.408 30.5293C136.916 32.1465 136.166 33.541 135.158 34.7129C134.162 35.8848 132.896 36.7871 131.361 37.4199C129.826 38.041 128.01 38.3516 125.912 38.3516C123.814 38.3516 121.998 38.041 120.463 37.4199C118.928 36.7871 117.656 35.8848 116.648 34.7129C115.652 33.541 114.908 32.1406 114.416 30.5117C113.924 28.8828 113.678 27.0723 113.678 25.0801C113.678 22.4199 114.111 20.1055 114.979 18.1367C115.857 16.1562 117.205 14.6211 119.021 13.5312C120.838 12.4414 123.146 11.8965 125.947 11.8965C128.736 11.8965 131.027 12.4414 132.82 13.5312C134.625 14.6211 135.961 16.1562 136.828 18.1367C137.707 20.1172 138.146 22.4434 138.146 25.1152ZM119.391 25.1152C119.391 26.9082 119.613 28.4551 120.059 29.7559C120.516 31.0449 121.225 32.041 122.186 32.7441C123.146 33.4355 124.389 33.7812 125.912 33.7812C127.459 33.7812 128.713 33.4355 129.674 32.7441C130.635 32.041 131.332 31.0449 131.766 29.7559C132.211 28.4551 132.434 26.9082 132.434 25.1152C132.434 22.4199 131.93 20.2988 130.922 18.752C129.914 17.2051 128.256 16.4316 125.947 16.4316C124.412 16.4316 123.158 16.7832 122.186 17.4863C121.225 18.1777 120.516 19.1738 120.059 20.4746C119.613 21.7637 119.391 23.3105 119.391 25.1152ZM158.643 30.8633C158.643 32.3867 158.273 33.7109 157.535 34.8359C156.797 35.9609 155.719 36.8281 154.301 37.4375C152.895 38.0469 151.184 38.3516 149.168 38.3516C148.277 38.3516 147.404 38.293 146.549 38.1758C145.705 38.0586 144.891 37.8887 144.105 37.666C143.332 37.4316 142.594 37.1445 141.891 36.8047V31.7422C143.109 32.2812 144.375 32.7676 145.688 33.2012C147 33.6348 148.301 33.8516 149.59 33.8516C150.48 33.8516 151.195 33.7344 151.734 33.5C152.285 33.2656 152.684 32.9434 152.93 32.5332C153.176 32.123 153.299 31.6543 153.299 31.127C153.299 30.4824 153.082 29.9316 152.648 29.4746C152.215 29.0176 151.617 28.5898 150.855 28.1914C150.105 27.793 149.256 27.3652 148.307 26.9082C147.709 26.627 147.059 26.2871 146.355 25.8887C145.652 25.4785 144.984 24.9805 144.352 24.3945C143.719 23.8086 143.197 23.0996 142.787 22.2676C142.389 21.4238 142.189 20.416 142.189 19.2441C142.189 17.709 142.541 16.3965 143.244 15.3066C143.947 14.2168 144.949 13.3848 146.25 12.8105C147.562 12.2246 149.109 11.9316 150.891 11.9316C152.227 11.9316 153.498 12.0898 154.705 12.4062C155.924 12.7109 157.195 13.1563 158.52 13.7422L156.762 17.9785C155.578 17.498 154.518 17.1289 153.58 16.8711C152.643 16.6016 151.688 16.4668 150.715 16.4668C150.035 16.4668 149.455 16.5781 148.975 16.8008C148.494 17.0117 148.131 17.3164 147.885 17.7148C147.639 18.1016 147.516 18.5527 147.516 19.0684C147.516 19.6777 147.691 20.1934 148.043 20.6152C148.406 21.0254 148.945 21.4238 149.66 21.8105C150.387 22.1973 151.289 22.6484 152.367 23.1641C153.68 23.7852 154.799 24.4355 155.725 25.1152C156.662 25.7832 157.383 26.5742 157.887 27.4883C158.391 28.3906 158.643 29.5156 158.643 30.8633ZM179.033 38L177.17 31.8828H167.801L165.938 38H160.066L169.137 12.1953H175.799L184.904 38H179.033ZM175.869 27.3125L174.006 21.3359C173.889 20.9375 173.73 20.4277 173.531 19.8066C173.344 19.1738 173.15 18.5352 172.951 17.8906C172.764 17.2344 172.611 16.666 172.494 16.1855C172.377 16.666 172.213 17.2637 172.002 17.9785C171.803 18.6816 171.609 19.3496 171.422 19.9824C171.234 20.6152 171.1 21.0664 171.018 21.3359L169.172 27.3125H175.869Z" fill="white"/>
</svg>
